:FULLY-SPECIFIED
:FORCE-ALL-JOINTS-BE-3DOF
:DEGREES
127
root 4.95707 16.6083 5.9663 3.24119 0.673582 0.963179
lfemur 4.03435 6.22114 -17.3116
ltibia 54.1505 0 0
lfoot 3.9731 -3.70973 -0.429533
ltoes -8.55089 0 0
rfemur -29.4999 8.62402 18.3478
rtibia 33.9325 0 0
rfoot -19.6249 -9.94811 0.099896
rtoes -9.35935 0 0
lowerback 4.70142 -2.30346 -0.999625
upperback 0.237975 -3.09874 2.10758
thorax -2.02404 -1.50966 2.66279
lowerneck -13.0723 -0.711609 -6.51616
upperneck 5.67129 -0.120095 3.74917
head 4.40221 -0.146088 1.92695
lclavicle -4.84926e-15 -2.78298e-15 1.06212e-31
lhumerus -40.3207 -20.1653 96.1541
lradius 71.9225 0 0
lwrist 20.0378 0 0
lhand -24.4489 -7.8623 -1.97922
lfingers 7.12502 0 0
lthumb 2.0398 21.6899 -1.92524
rclavicle -4.84926e-15 -2.78298e-15 1.06212e-31
rhumerus -38.944 10.5594 -84.39
rradius 63.7177 0 0
rwrist -11.1179 0 0
rhand -37.293 8.864 -1.74657
rfingers 7.12502 0 0
rthumb -10.3524 -20.7588 -1.70334
128
root 4.93833 16.5784 6.2829 3.73056 1.2611 1.20698
lfemur 1.76259 5.78894 -17.6582
ltibia 55.479 0 0
lfoot 3.66635 -4.31578 -0.412279
ltoes -8.76871 0 0
rfemur -29.3066 7.93811 18.2389
rtibia 34.3648 0 0
rfoot -20.1292 -9.85344 0.0665631
rtoes -11.4891 0 0
lowerback 4.27794 -2.41461 -1.12627
upperback 0.207597 -3.25441 2.01987
thorax -1.8462 -1.58447 2.68898
lowerneck -12.6739 -0.766983 -6.49189
upperneck 5.01312 -0.218465 3.8525
head 4.12352 -0.190514 1.92734
lclavicle 1.30685e-14 1.31198e-14 1.68525e-30
lhumerus -41.0073 -19.4416 96.2068
lradius 71.4676 0 0
lwrist 20.5582 0 0
lhand -24.1297 -6.51465 -2.15668
lfingers 7.12502 0 0
lthumb 2.34715 23.0077 -2.09984
rclavicle 1.30685e-14 1.31198e-14 1.68525e-30
rhumerus -37.7283 10.7601 -84.36
rradius 64.001 0 0
rwrist -10.9287 0 0
rhand -37.4667 9.10235 -1.69412
rfingers 7.12502 0 0
rthumb -10.5202 -20.5168 -1.65207
129
root 4.91742 16.5557 6.58845 4.18696 2.63038 1.27781
lfemur -0.884719 4.50595 -17.9785
ltibia 56.6905 0 0
lfoot 3.654 -4.69115 -0.404175
ltoes -9.3184 0 0
rfemur -28.9339 6.9146 18.3855
rtibia 34.6643 0 0
rfoot -20.4376 -10.0506 0.042203
rtoes -13.6895 0 0
lowerback 4.13566 -2.68374 -0.92178
upperback 0.0655061 -3.5883 2.0322
thorax -1.94692 -1.75334 2.67919
lowerneck -12.621 -0.916107 -6.50881
upperneck 4.72635 -0.426243 3.87387
head 4.01788 -0.279479 1.92593
lclavicle 1.6906e-14 -2.82275e-14 1.48384e-30
lhumerus -41.8733 -19.296 96.6929
lradius 70.5357 0 0
lwrist 19.876 0 0
lhand -26.3453 -6.7953 -2.01517
lfingers 7.12502 0 0
lthumb 0.21195 22.8644 -1.94612
rclavicle 1.6906e-14 -2.82275e-14 1.48384e-30
rhumerus -36.7471 10.6857 -84.1629
rradius 64.2684 0 0
rwrist -10.61 0 0
rhand -37.505 9.15365 -1.68559
rfingers 7.12502 0 0
rthumb -10.5572 -20.4633 -1.64391
130
root 4.90416 16.5503 6.9457 3.64022 1.44486 1.0666
lfemur -0.713682 5.7792 -17.0663
ltibia 56.9175 0 0
lfoot 2.90225 -5.11448 -0.449069
ltoes -9.91876 0 0
rfemur -27.1584 7.6894 18.5328
rtibia 34.7086 0 0
rfoot -20.4537 -9.43366 0.0277323
rtoes -15.6494 0 0
lowerback 4.59799 -2.11463 -1.18155
upperback 0.250091 -2.85475 2.01098
thorax -1.94536 -1.39277 2.58487
lowerneck -12.5263 -1.04617 -6.41714
upperneck 4.69177 -0.612177 3.70498
head 3.98577 -0.372946 1.84976
lclavicle 1.13991e-15 1.92821e-14 1.30559e-31
lhumerus -42.7677 -18.7876 97.0147
lradius 70.0944 0 0
lwrist 20.1614 0 0
lhand -26.6378 -6.27925 -1.94667
lfingers 7.12502 0 0
lthumb -0.0701 23.4072 -1.87852
rclavicle 1.13991e-15 1.92821e-14 1.30559e-31
rhumerus -36.1791 10.6268 -84.0424
rradius 64.606 0 0
rwrist -10.2575 0 0
rhand -37.4519 9.1788 -1.65491
rfingers 7.12502 0 0
rthumb -10.5059 -20.442 -1.61401
131
root 4.88108 16.5383 7.26725 3.65485 1.58807 1.04458
lfemur -2.14952 5.69243 -16.8351
ltibia 57.311 0 0
lfoot 2.57935 -5.42067 -0.466469
ltoes -11.3104 0 0
rfemur -26.1099 7.50744 18.7463
rtibia 34.7465 0 0
rfoot -20.0127 -8.81686 0.0151858
rtoes -15.8054 0 0
lowerback 4.92224 -1.98157 -1.42254
upperback 0.177711 -2.68243 2.05758
thorax -2.17174 -1.3088 2.71362
lowerneck -12.6635 -1.18401 -6.35288
upperneck 4.93299 -0.784792 3.54885
head 4.09572 -0.470648 1.79399
lclavicle -3.06253e-14 1.88846e-14 -8.37732e-32
lhumerus -43.4476 -18.0757 97.1981
lradius 69.7565 0 0
lwrist 20.6835 0 0
lhand -25.9977 -5.9968 -1.98446
lfingers 7.12502 0 0
lthumb 0.5471 23.6623 -1.91844
rclavicle -3.06253e-14 1.88846e-14 -8.37732e-32
rhumerus -35.6566 10.5017 -83.9372
rradius 64.9252 0 0
rwrist -10.003 0 0
rhand -37.2559 8.62885 -1.75894
rfingers 7.12502 0 0
rthumb -10.3167 -20.9961 -1.71516
